<svg width="512" height="512" viewBox="0 0 512 512" fill="none" xmlns="http://www.w3.org/2000/svg">
<rect width="512" height="512" fill="#990000"/>
<path d="M382.456 200.738C422.92 214.668 447.789 235.781 447.789 254.89C447.789 274.812 421.429 297.241 377.984 311.646C345.129 322.526 301.906 328.209 256.399 328.209C209.74 328.209 165.559 322.875 132.346 311.52C90.314 297.154 65 274.434 65 254.89C65 235.936 88.7555 214.978 128.648 201.077C162.345 189.325 207.988 182.297 256.39 182.297C304.336 182.297 348.875 189.17 382.456 200.738Z" stroke="white" stroke-width="23.7792"/>
<path d="M272.294 118.911C304.569 90.8186 335.284 79.8217 351.847 89.3762C369.107 99.3275 375.361 133.363 366.126 178.193C359.156 212.084 342.477 252.373 319.738 291.791C296.427 332.207 269.739 367.82 243.312 390.918C209.876 420.152 177.543 430.723 160.622 420.965C144.195 411.498 137.912 380.453 145.792 338.944C152.452 303.882 169.16 260.834 193.332 218.899C217.291 177.37 245.499 142.231 272.294 118.911Z" stroke="white" stroke-width="23.7792"/>
<path d="M146.353 175.908C138.135 133.915 143.953 101.815 160.496 92.2319C177.737 82.2515 210.36 93.8292 244.58 124.216C270.455 147.197 297.028 181.755 319.825 221.144C343.203 261.521 360.724 302.43 367.539 336.863C376.164 380.424 369.185 413.715 352.273 423.511C335.865 433.008 305.827 422.95 273.804 395.39C246.758 372.109 217.804 336.137 193.555 294.24C169.538 252.76 153.178 210.767 146.353 175.908Z" stroke="white" stroke-width="23.7792"/>
<path d="M275.256 284.154L283.194 291.627L272.498 290.939L276.912 300.804L267.299 296.176L267.503 306.931L260.436 299.071L256.39 309.09L252.953 299.187L245.296 306.931L245.993 296.506L235.887 300.804L240.62 291.433L229.594 291.627L237.648 284.734L227.387 280.794L237.532 277.435L229.594 269.972L240.282 270.649L235.887 260.795L245.49 265.412L245.296 254.658L252.363 262.518L256.39 252.509L259.836 262.402L267.503 254.658L266.796 265.083L276.912 260.795L272.168 270.165L283.194 269.972L275.14 276.864L285.401 280.794L275.256 284.154Z" fill="white"/>
<path d="M270.358 221.812C271.733 222.955 272.507 223.594 272.662 223.719C278.257 219.392 282.246 215.433 285.363 208.87C286.089 217.63 278.054 237.311 256.98 237.523C234.415 237.504 226.584 216.633 227.455 208.502C231.598 216.014 234.125 219.692 240.63 223.603C240.766 223.477 241.434 222.868 242.624 221.774L238.22 218.105L243.892 216.633L240.833 211.493L246.777 211.929L246.032 205.937L251.249 208.986L252.876 203.42L256.622 207.902L260.126 203.652L262.033 209.431L266.912 206.043L266.283 211.919L272.12 211.232L269.381 216.672L275.034 218.356L270.358 221.812Z" fill="white"/>
</svg>
