<svg width="512" height="512" viewBox="0 0 512 512" fill="none" xmlns="http://www.w3.org/2000/svg">
<path d="M390.866 196.477C434.059 211.347 460.605 233.884 460.605 254.281C460.605 275.547 432.467 299.489 386.092 314.865C351.021 326.48 304.884 332.545 256.307 332.545C206.502 332.545 159.341 326.852 123.888 314.731C79.0212 299.396 52 275.144 52 254.281C52 234.049 77.3576 211.678 119.941 196.839C155.91 184.294 204.631 176.793 256.297 176.793C307.477 176.793 355.02 184.129 390.866 196.477Z" stroke="#990000" stroke-width="23.7792"/>
<path d="M273.275 109.131C307.725 79.1436 340.512 67.405 358.193 77.6039C376.617 88.2265 383.292 124.558 373.434 172.411C365.994 208.588 348.19 251.595 323.917 293.672C299.035 336.813 270.547 374.829 242.337 399.484C206.646 430.69 172.133 441.974 154.071 431.558C136.536 421.452 129.829 388.314 138.241 344.005C145.35 306.578 163.185 260.626 188.987 215.862C214.561 171.533 244.672 134.023 273.275 109.131Z" stroke="#990000" stroke-width="23.7792"/>
<path d="M138.84 169.973C130.067 125.147 136.277 90.8821 153.937 80.6522C172.34 69.9987 207.163 82.3572 243.691 114.793C271.311 139.324 299.676 176.214 324.01 218.26C348.965 261.36 367.668 305.028 374.943 341.783C384.149 388.283 376.699 423.819 358.647 434.276C341.132 444.413 309.069 433.676 274.887 404.258C246.016 379.406 215.109 341.008 189.225 296.286C163.588 252.008 146.125 207.183 138.84 169.973Z" stroke="#990000" stroke-width="23.7792"/>
<path d="M276.221 285.329L284.694 293.307L273.276 292.573L277.988 303.102L267.727 298.163L267.944 309.643L260.401 301.253L256.082 311.948L252.414 301.377L244.24 309.643L244.984 298.514L234.196 303.102L239.249 293.1L227.48 293.307L236.077 285.949L225.124 281.744L235.953 278.158L227.48 270.191L238.887 270.914L234.196 260.395L244.447 265.324L244.24 253.844L251.783 262.234L256.082 251.55L259.76 262.11L267.944 253.844L267.19 264.973L277.988 260.395L272.925 270.398L284.694 270.191L276.097 277.548L287.05 281.744L276.221 285.329Z" fill="#990000"/>
<path d="M270.992 218.783C272.46 220.003 273.286 220.685 273.452 220.819C279.424 216.2 283.681 211.974 287.009 204.968C287.784 214.319 279.207 235.327 256.712 235.554C232.625 235.533 224.266 213.255 225.196 204.575C229.618 212.594 232.315 216.52 239.259 220.695C239.404 220.561 240.117 219.91 241.388 218.742L236.686 214.826L242.741 213.255L239.476 207.768L245.821 208.233L245.025 201.837L250.595 205.092L252.331 199.15L256.33 203.934L260.07 199.398L262.106 205.567L267.314 201.951L266.642 208.223L272.873 207.489L269.949 213.296L275.983 215.094L270.992 218.783Z" fill="#990000"/>
</svg>
