<svg width="1280" height="430" viewBox="0 0 1280 430" fill="none" xmlns="http://www.w3.org/2000/svg">
<rect width="1280" height="430" fill="#990000"/>
<path d="M575.4 257L557.88 225.2H552.96V257H532.44V172.76H566.88C573.52 172.76 579.16 173.92 583.8 176.24C588.52 178.56 592.04 181.76 594.36 185.84C596.68 189.84 597.84 194.32 597.84 199.28C597.84 204.88 596.24 209.88 593.04 214.28C589.92 218.68 585.28 221.8 579.12 223.64L598.56 257H575.4ZM552.96 210.68H565.68C569.44 210.68 572.24 209.76 574.08 207.92C576 206.08 576.96 203.48 576.96 200.12C576.96 196.92 576 194.4 574.08 192.56C572.24 190.72 569.44 189.8 565.68 189.8H552.96V210.68ZM673.841 222.44C673.841 224.36 673.721 226.36 673.481 228.44H627.041C627.361 232.6 628.681 235.8 631.001 238.04C633.401 240.2 636.321 241.28 639.761 241.28C644.881 241.28 648.441 239.12 650.441 234.8H672.281C671.161 239.2 669.121 243.16 666.161 246.68C663.281 250.2 659.641 252.96 655.241 254.96C650.841 256.96 645.921 257.96 640.481 257.96C633.921 257.96 628.081 256.56 622.961 253.76C617.841 250.96 613.841 246.96 610.961 241.76C608.081 236.56 606.641 230.48 606.641 223.52C606.641 216.56 608.041 210.48 610.841 205.28C613.721 200.08 617.721 196.08 622.841 193.28C627.961 190.48 633.841 189.08 640.481 189.08C646.961 189.08 652.721 190.44 657.761 193.16C662.801 195.88 666.721 199.76 669.521 204.8C672.401 209.84 673.841 215.72 673.841 222.44ZM652.841 217.04C652.841 213.52 651.641 210.72 649.241 208.64C646.841 206.56 643.841 205.52 640.241 205.52C636.801 205.52 633.881 206.52 631.481 208.52C629.161 210.52 627.721 213.36 627.161 217.04H652.841ZM680.587 223.4C680.587 216.52 681.867 210.48 684.427 205.28C687.067 200.08 690.627 196.08 695.107 193.28C699.587 190.48 704.587 189.08 710.107 189.08C714.827 189.08 718.947 190.04 722.467 191.96C726.067 193.88 728.827 196.4 730.747 199.52V190.04H751.267V257H730.747V247.52C728.747 250.64 725.947 253.16 722.347 255.08C718.827 257 714.707 257.96 709.987 257.96C704.547 257.96 699.587 256.56 695.107 253.76C690.627 250.88 687.067 246.84 684.427 241.64C681.867 236.36 680.587 230.28 680.587 223.4ZM730.747 223.52C730.747 218.4 729.307 214.36 726.427 211.4C723.627 208.44 720.187 206.96 716.107 206.96C712.027 206.96 708.547 208.44 705.667 211.4C702.867 214.28 701.467 218.28 701.467 223.4C701.467 228.52 702.867 232.6 705.667 235.64C708.547 238.6 712.027 240.08 716.107 240.08C720.187 240.08 723.627 238.6 726.427 235.64C729.307 232.68 730.747 228.64 730.747 223.52ZM762.032 223.52C762.032 216.56 763.432 210.48 766.232 205.28C769.112 200.08 773.072 196.08 778.112 193.28C783.232 190.48 789.072 189.08 795.632 189.08C804.032 189.08 811.032 191.28 816.632 195.68C822.312 200.08 826.032 206.28 827.792 214.28H805.952C804.112 209.16 800.552 206.6 795.272 206.6C791.512 206.6 788.512 208.08 786.272 211.04C784.032 213.92 782.912 218.08 782.912 223.52C782.912 228.96 784.032 233.16 786.272 236.12C788.512 239 791.512 240.44 795.272 240.44C800.552 240.44 804.112 237.88 805.952 232.76H827.792C826.032 240.6 822.312 246.76 816.632 251.24C810.952 255.72 803.952 257.96 795.632 257.96C789.072 257.96 783.232 256.56 778.112 253.76C773.072 250.96 769.112 246.96 766.232 241.76C763.432 236.56 762.032 230.48 762.032 223.52ZM876.088 239.6V257H865.648C858.208 257 852.408 255.2 848.248 251.6C844.088 247.92 842.008 241.96 842.008 233.72V207.08H833.848V190.04H842.008V173.72H862.528V190.04H875.968V207.08H862.528V233.96C862.528 235.96 863.008 237.4 863.968 238.28C864.928 239.16 866.528 239.6 868.768 239.6H876.088ZM977.148 199.88C977.148 204.76 976.028 209.24 973.788 213.32C971.548 217.32 968.108 220.56 963.468 223.04C958.828 225.52 953.068 226.76 946.188 226.76H933.468V257H912.948V172.76H946.188C952.908 172.76 958.588 173.92 963.228 176.24C967.868 178.56 971.348 181.76 973.668 185.84C975.988 189.92 977.148 194.6 977.148 199.88ZM944.628 210.44C948.548 210.44 951.468 209.52 953.388 207.68C955.308 205.84 956.268 203.24 956.268 199.88C956.268 196.52 955.308 193.92 953.388 192.08C951.468 190.24 948.548 189.32 944.628 189.32H933.468V210.44H944.628ZM983.751 223.4C983.751 216.52 985.031 210.48 987.591 205.28C990.231 200.08 993.791 196.08 998.271 193.28C1002.75 190.48 1007.75 189.08 1013.27 189.08C1017.99 189.08 1022.11 190.04 1025.63 191.96C1029.23 193.88 1031.99 196.4 1033.91 199.52V190.04H1054.43V257H1033.91V247.52C1031.91 250.64 1029.11 253.16 1025.51 255.08C1021.99 257 1017.87 257.96 1013.15 257.96C1007.71 257.96 1002.75 256.56 998.271 253.76C993.791 250.88 990.231 246.84 987.591 241.64C985.031 236.36 983.751 230.28 983.751 223.4ZM1033.91 223.52C1033.91 218.4 1032.47 214.36 1029.59 211.4C1026.79 208.44 1023.35 206.96 1019.27 206.96C1015.19 206.96 1011.71 208.44 1008.83 211.4C1006.03 214.28 1004.63 218.28 1004.63 223.4C1004.63 228.52 1006.03 232.6 1008.83 235.64C1011.71 238.6 1015.19 240.08 1019.27 240.08C1023.35 240.08 1026.79 238.6 1029.59 235.64C1032.47 232.68 1033.91 228.64 1033.91 223.52ZM1106.6 239.6V257H1096.16C1088.72 257 1082.92 255.2 1078.76 251.6C1074.6 247.92 1072.52 241.96 1072.52 233.72V207.08H1064.36V190.04H1072.52V173.72H1093.04V190.04H1106.48V207.08H1093.04V233.96C1093.04 235.96 1093.52 237.4 1094.48 238.28C1095.44 239.16 1097.04 239.6 1099.28 239.6H1106.6ZM1138.55 201.2C1140.95 197.52 1143.95 194.64 1147.55 192.56C1151.15 190.4 1155.15 189.32 1159.55 189.32V211.04H1153.91C1148.79 211.04 1144.95 212.16 1142.39 214.4C1139.83 216.56 1138.55 220.4 1138.55 225.92V257H1118.03V190.04H1138.55V201.2ZM1199.83 257.96C1193.27 257.96 1187.35 256.56 1182.07 253.76C1176.87 250.96 1172.75 246.96 1169.71 241.76C1166.75 236.56 1165.27 230.48 1165.27 223.52C1165.27 216.64 1166.79 210.6 1169.83 205.4C1172.87 200.12 1177.03 196.08 1182.31 193.28C1187.59 190.48 1193.51 189.08 1200.07 189.08C1206.63 189.08 1212.55 190.48 1217.83 193.28C1223.11 196.08 1227.27 200.12 1230.31 205.4C1233.35 210.6 1234.87 216.64 1234.87 223.52C1234.87 230.4 1233.31 236.48 1230.19 241.76C1227.15 246.96 1222.95 250.96 1217.59 253.76C1212.31 256.56 1206.39 257.96 1199.83 257.96ZM1199.83 240.2C1203.75 240.2 1207.07 238.76 1209.79 235.88C1212.59 233 1213.99 228.88 1213.99 223.52C1213.99 218.16 1212.63 214.04 1209.91 211.16C1207.27 208.28 1203.99 206.84 1200.07 206.84C1196.07 206.84 1192.75 208.28 1190.11 211.16C1187.47 213.96 1186.15 218.08 1186.15 223.52C1186.15 228.88 1187.43 233 1189.99 235.88C1192.63 238.76 1195.91 240.2 1199.83 240.2Z" fill="white"/>
<path d="M391.047 155.795C433.753 170.46 460 192.687 460 212.805C460 233.779 432.18 257.392 386.327 272.557C351.652 284.012 306.034 289.994 258.005 289.994C208.76 289.994 162.131 284.378 127.078 272.424C82.7167 257.3 56 233.381 56 212.805C56 192.85 81.0719 170.786 123.175 156.152C158.739 143.779 206.911 136.381 257.995 136.381C308.598 136.381 355.605 143.616 391.047 155.795Z" stroke="white" stroke-width="23.7792"/>
<path d="M274.781 69.648C308.844 40.0729 341.261 28.4956 358.742 38.5544C376.959 49.031 383.559 84.8636 373.812 132.059C366.456 167.739 348.852 210.155 324.853 251.654C300.251 294.203 272.084 331.696 244.192 356.013C208.904 386.791 174.78 397.919 156.921 387.647C139.583 377.68 132.952 344.996 141.269 301.296C148.298 264.383 165.932 219.062 191.443 174.914C216.73 131.193 246.501 94.1988 274.781 69.648Z" stroke="white" stroke-width="23.7792"/>
<path d="M141.861 129.654C133.187 85.4446 139.328 51.6502 156.788 41.5609C174.984 31.0537 209.414 43.2424 245.53 75.2329C272.84 99.427 300.885 135.81 324.945 177.278C349.619 219.786 368.111 262.854 375.303 299.105C384.406 344.966 377.04 380.013 359.192 390.327C341.874 400.325 310.172 389.736 276.375 360.721C247.829 336.211 217.271 298.34 191.678 254.233C166.33 210.563 149.064 166.353 141.861 129.654Z" stroke="white" stroke-width="23.7792"/>
<path d="M277.907 243.613L286.285 251.481L274.996 250.757L279.654 261.142L269.509 256.271L269.724 267.593L262.266 259.318L257.995 269.866L254.368 259.44L246.287 267.593L247.022 256.617L236.356 261.142L241.352 251.277L229.715 251.481L238.215 244.225L227.386 240.077L238.093 236.54L229.715 228.683L240.994 229.396L236.356 219.022L246.491 223.883L246.287 212.56L253.745 220.836L257.995 210.298L261.632 220.713L269.724 212.56L268.978 223.536L279.654 219.022L274.648 228.887L286.285 228.683L277.785 235.939L288.614 240.077L277.907 243.613Z" fill="white"/>
<path d="M272.738 177.981C274.188 179.184 275.006 179.857 275.169 179.989C281.074 175.434 285.284 171.265 288.573 164.356C289.34 173.579 280.86 194.298 258.618 194.522C234.803 194.501 226.538 172.529 227.457 163.968C231.83 171.877 234.496 175.749 241.362 179.867C241.505 179.734 242.21 179.092 243.467 177.941L238.818 174.078L244.805 172.529L241.577 167.117L247.85 167.576L247.063 161.268L252.57 164.478L254.286 158.618L258.24 163.336L261.939 158.863L263.951 164.947L269.1 161.38L268.436 167.566L274.597 166.842L271.706 172.57L277.672 174.343L272.738 177.981Z" fill="white"/>
</svg>
